<svg width="112" height="110" viewBox="0 0 112 110" fill="none" xmlns="http://www.w3.org/2000/svg">
<path d="M67.5553 5.8567L68.5962 6.01952C68.1717 7.38609 68.7009 8.35722 70.2535 8.82825C71.2944 9.14227 72.0853 8.93292 72.3761 7.9676C72.661 7.03136 71.9632 6.56033 70.7653 5.79855C69.3987 4.94372 68.3694 4.08889 68.8288 2.57113C69.2824 1.07082 70.7129 0.617234 72.3354 1.11152C74.1148 1.64652 74.9638 2.85607 74.4753 4.68204L73.4751 4.58899C73.7426 3.35618 73.3763 2.41412 72.033 2.01287C70.9281 1.67559 70.1837 2.0245 69.9453 2.827C69.6662 3.73998 70.3407 4.25171 71.5329 5.01932C72.818 5.8567 73.9578 6.64756 73.4809 8.2351C73.039 9.67726 71.7248 10.2762 69.9628 9.74123C68.1252 9.18879 66.9214 7.90945 67.5611 5.86833L67.5553 5.8567Z" fill="#F9FAFB"/>
<path d="M79.2489 8.491C80.6271 6.19983 82.9358 5.47293 85.1455 6.79879C86.9424 7.88041 87.6112 9.44469 86.8668 11.4102L85.8375 11.0032C86.3842 9.40399 85.8666 8.36307 84.6454 7.62454C83.023 6.65341 81.3598 7.27563 80.2666 9.09578C79.1792 10.8985 79.406 12.6663 81.0284 13.6432C82.2612 14.3818 83.401 14.3585 84.5756 13.1024L85.4188 13.8177C83.9999 15.3878 82.3426 15.5622 80.5341 14.469C78.3243 13.1373 77.8766 10.7589 79.2489 8.47937V8.491Z" fill="#F9FAFB"/>
<path d="M92.1878 24.0291L91.2166 23.0522L92.1005 18.8013L91.1061 17.8011L88.5358 20.3481L87.7275 19.534L93.8974 13.4106L96.1595 15.6902C97.4098 16.9463 97.5435 18.2605 96.3398 19.4526C95.3629 20.4237 94.1766 20.4935 93.0775 19.7085L92.1878 24.035V24.0291ZM94.0428 14.8819L91.7342 17.1731L93.1066 18.5571C93.9091 19.3654 94.7348 19.3596 95.5082 18.592C96.2642 17.8418 96.2293 17.0858 95.4384 16.2892L94.0428 14.8819Z" fill="#F9FAFB"/>
<path d="M98.6772 25.2154C100.939 23.8895 103.364 24.3606 104.69 26.6168C106.016 28.8789 105.231 31.2225 102.975 32.5425C100.712 33.8684 98.2875 33.409 96.9617 31.1469C95.6358 28.8848 96.4151 26.5412 98.6772 25.2154ZM102.37 31.5132C104.149 30.4665 104.795 28.7743 103.829 27.1228C102.858 25.4596 101.061 25.1921 99.2819 26.2389C97.5025 27.2856 96.857 28.9778 97.8281 30.6409C98.7935 32.2925 100.585 32.5599 102.37 31.5132Z" fill="#F9FAFB"/>
<path d="M100.98 39.4102L109.308 36.933L109.633 38.032L102.242 40.236L103.388 44.0798L102.451 44.3589L100.98 39.4161V39.4102Z" fill="#F9FAFB"/>
<path d="M103.248 49.1331L111.913 48.4528L112 49.5983L104.312 50.2031L104.626 54.204L103.655 54.2796L103.248 49.1331Z" fill="#F9FAFB"/>
<path d="M102.609 65.1714L110.96 67.6021L110.128 70.4574C109.314 73.2545 107.273 74.15 104.749 73.4115C102.214 72.673 100.963 70.8179 101.777 68.0208L102.609 65.1714ZM103.237 66.567L102.725 68.329C102.12 70.4109 103.092 71.6902 105.086 72.2717C107.087 72.8532 108.564 72.2892 109.174 70.2073L109.686 68.4453L103.237 66.567Z" fill="#F9FAFB"/>
<path d="M102.475 78.5986C104.708 79.971 105.435 82.3378 104.063 84.5708C102.69 86.8038 100.254 87.2109 98.0206 85.8385C95.7876 84.4661 95.0549 82.1051 96.4272 79.8721C97.7996 77.6391 100.242 77.2262 102.475 78.5986ZM98.6486 84.8208C100.411 85.9024 102.208 85.6757 103.208 84.0474C104.22 82.4075 103.609 80.6979 101.853 79.6163C100.091 78.5346 98.2939 78.7614 97.2879 80.4013C96.2877 82.0295 96.8924 83.7392 98.6544 84.8208H98.6486Z" fill="#F9FAFB"/>
<path d="M90.3388 99.8298L89.4432 100.632L85.2854 92.6888L86.4426 91.6479L91.1471 94.7706C91.5483 95.0381 91.938 95.2998 92.3101 95.5673C92.1008 95.1835 91.8856 94.8055 91.6356 94.3112L89.0536 89.3102L90.2167 88.2693L97.6601 93.2645L96.7587 94.0728L92.0426 90.8163C91.4495 90.4034 90.897 90.008 90.3388 89.5951C90.6877 90.2232 91.0192 90.828 91.339 91.456L93.9151 96.4512L93.0138 97.2595L88.3209 94.1368C87.7161 93.7472 87.1637 93.3517 86.588 92.9447C86.9311 93.5495 87.28 94.1484 87.6173 94.7765L90.333 99.8182L90.3388 99.8298Z" fill="#F9FAFB"/>
<path d="M78.4812 106.692L77.4694 107.18L73.6953 99.3471L74.7537 98.8354L80.1385 102.295C80.5688 102.575 81.0166 102.883 81.5225 103.255C81.2725 102.801 81.0457 102.348 80.8422 101.912L78.4928 97.0327L79.5047 96.5442L83.2787 104.377L82.1913 104.901L76.9285 101.505C76.4633 101.202 75.9865 100.876 75.4399 100.475C75.7074 100.952 75.9574 101.435 76.1784 101.9L78.4812 106.686V106.692Z" fill="#F9FAFB"/>
<path d="M63.3565 106.279L63.4205 107.186L55.855 107.698L55.791 106.791L63.3565 106.279Z" fill="#F9FAFB"/>
<path d="M44.219 104.226L43.1781 104.057C43.6142 102.697 43.085 101.72 41.5324 101.243C40.4915 100.923 39.7006 101.127 39.4041 102.092C39.1191 103.022 39.8111 103.505 41.0032 104.273C42.3698 105.133 43.3874 105.994 42.9222 107.512C42.457 109.012 41.0265 109.454 39.4041 108.954C37.6304 108.407 36.7814 107.192 37.2815 105.366L38.2817 105.465C38.0084 106.697 38.3689 107.64 39.7064 108.052C40.8113 108.396 41.5557 108.052 41.7999 107.25C42.079 106.337 41.4161 105.825 40.224 105.052C38.9447 104.209 37.8049 103.412 38.2934 101.824C38.7469 100.382 40.0612 99.7949 41.8232 100.336C43.6549 100.9 44.8529 102.185 44.2074 104.226H44.219Z" fill="#F9FAFB"/>
<path d="M32.5419 101.528C31.1521 103.813 28.8377 104.528 26.6279 103.185C24.8368 102.092 24.1739 100.528 24.9357 98.5563L25.9591 98.9692C25.4009 100.563 25.9184 101.615 27.1338 102.354C28.7504 103.336 30.4194 102.726 31.5243 100.906C32.6175 99.1029 32.4023 97.3351 30.7857 96.3524C29.5587 95.6022 28.419 95.6255 27.2385 96.8699L26.4011 96.1488C27.8258 94.5904 29.489 94.4275 31.2917 95.5208C33.4956 96.8641 33.9259 99.2483 32.5419 101.522V101.528Z" fill="#F9FAFB"/>
<path d="M19.6723 85.9141L20.6376 86.8969L19.7304 91.142L20.719 92.148L23.3009 89.6126L24.1092 90.4325L17.9044 96.521L15.654 94.2298C14.4153 92.9679 14.2874 91.6537 15.497 90.4674C16.4797 89.5021 17.666 89.4381 18.7593 90.229L19.6723 85.9083V85.9141ZM17.7649 95.0498L20.0851 92.7702L18.7244 91.3804C17.9277 90.5663 17.102 90.5663 16.3227 91.3281C15.5609 92.0724 15.5958 92.8284 16.3809 93.6309L17.7649 95.044V95.0498Z" fill="#F9FAFB"/>
<path d="M13.2005 84.6987C10.9326 86.0072 8.50769 85.5303 7.19927 83.2624C5.89086 80.9945 6.68172 78.6568 8.94964 77.3484C11.2176 76.04 13.6367 76.511 14.9509 78.7789C16.2651 81.0468 15.4684 83.3903 13.2005 84.6987ZM9.5486 78.3835C7.76334 79.4186 7.10623 81.105 8.06573 82.7623C9.03105 84.4313 10.8163 84.7046 12.6074 83.6753C14.3926 82.6402 15.0497 80.9538 14.0844 79.2848C13.1249 77.6275 11.3397 77.3542 9.5486 78.3835Z" fill="#F9FAFB"/>
<path d="M10.9793 70.5098L2.62867 72.9463L2.30884 71.8414L9.72318 69.6782L8.60085 65.8228L9.53709 65.5494L10.9851 70.5098H10.9793Z" fill="#F9FAFB"/>
<path d="M8.75764 60.7636L0.0814123 61.3975L0 60.2519L7.69928 59.6878L7.40852 55.687L8.38547 55.6172L8.76346 60.7694L8.75764 60.7636Z" fill="#F9FAFB"/>
<path d="M9.47869 44.7253L1.15137 42.2481L2.00038 39.4045C2.83195 36.619 4.87307 35.7351 7.39104 36.4852C9.92064 37.2412 11.1593 39.1021 10.3277 41.8875L9.47869 44.7311V44.7253ZM8.86228 43.3297L9.38564 41.5735C10.0021 39.4975 9.04255 38.2123 7.04795 37.6192C5.05334 37.026 3.57048 37.5843 2.95407 39.6545L2.4307 41.4107L8.86228 43.3239V43.3297Z" fill="#F9FAFB"/>
<path d="M9.68244 31.3039C7.45523 29.9199 6.73996 27.5531 8.12397 25.3259C9.50798 23.0987 11.9445 22.7032 14.1717 24.0872C16.399 25.4713 17.12 27.8322 15.736 30.0594C14.352 32.2866 11.9096 32.6879 9.68244 31.3039ZM13.5379 25.1049C11.7817 24.0116 9.98483 24.2326 8.97299 25.8551C7.95533 27.4891 8.5543 29.1988 10.3105 30.292C12.0667 31.3853 13.8635 31.1643 14.8812 29.5302C15.893 27.9078 15.2941 26.1923 13.5379 25.1049Z" fill="#F9FAFB"/>
<path d="M21.9353 10.1309L22.8367 9.33423L26.9538 17.3068L25.7908 18.3419L21.1038 15.1959C20.7025 14.9284 20.3187 14.6609 19.9465 14.3934C20.1559 14.783 20.3652 15.1552 20.6153 15.6495L23.1681 20.668L22.0051 21.7031L14.585 16.6613L15.4921 15.8588L20.1908 19.1386C20.7839 19.5515 21.3306 19.9527 21.8888 20.3656C21.5457 19.7317 21.2143 19.1328 20.8944 18.4989L18.3416 13.4863L19.2487 12.6838L23.9241 15.8298C24.5231 16.2252 25.0813 16.6206 25.6512 17.0335C25.3081 16.4229 24.965 15.824 24.6278 15.1959L21.9411 10.1367L21.9353 10.1309Z" fill="#F9FAFB"/>
<path d="M33.8386 3.33288L34.8563 2.85022L38.5838 10.7065L37.5196 11.2124L32.1522 7.71751C31.7219 7.43257 31.28 7.12437 30.774 6.74638C31.0183 7.19997 31.2451 7.65936 31.4486 8.08968L33.7689 12.9861L32.7512 13.4687L29.0237 5.61242L30.1111 5.09487L35.3564 8.52001C35.8216 8.82821 36.2926 9.15386 36.8393 9.55511C36.5718 9.07245 36.3275 8.58979 36.1066 8.12458L33.8328 3.32706L33.8386 3.33288Z" fill="#F9FAFB"/>
<path d="M48.9634 3.82717L48.9053 2.92L56.4708 2.44897L56.529 3.35614L48.9634 3.82717Z" fill="#F9FAFB"/>
</svg>
